# xmcd
#
# Track frame offsets:
#	150
#	18493
#	36727
#
# Disc length: 731 seconds
#
# Revision: 0
# Processed by: cddbd v1.5.2PL0 Copyright (c) Steve Scherf et al.
# Submitted via: audiograbber 1.83.01
#
DISCID=2302d903
DTITLE=Lloyd Banks - CD Single
DYEAR=2006
DGENRE=RnB
TTITLE0=Hands Up (Clean) (Featuring 50 Cent)
TTITLE1=Hands Up (Instrumental)
TTITLE2=Hands Up (Album) (Featuring 50 Cent)
EXTD=
EXTT0=
EXTT1=
EXTT2=
PLAYORDER=
